stateDiagram-v2
  unacknowledged --> acknowledged
  unacknowledged --> shelved
  unacknowledged --> suppressed
  unacknowledged --> out_of_service
  acknowledged --> cleared
  acknowledged --> shelved
  acknowledged --> suppressed
  acknowledged --> out_of_service
  shelved --> unacknowledged
  shelved --> acknowledged
  shelved --> out_of_service
  suppressed --> unacknowledged
  suppressed --> acknowledged
  suppressed --> out_of_service
  cleared --> unacknowledged
  out_of_service --> unacknowledged
  out_of_service --> cleared
